<svg width="286" height="74" viewBox="0 0 286 74" fill="none" xmlns="http://www.w3.org/2000/svg">
<path d="M0 10C0 4.47715 4.47715 0 10 0H276C281.523 0 286 4.47715 286 10V64C286 69.5229 281.523 74 276 74H10C4.47715 74 0 69.5229 0 64V10Z" fill="#C07212"/>
<path d="M48.22 48V26.7H62.53V30.33H52.36V35.82H60.82V39.18H52.36V48H48.22ZM62.6875 43.35C62.6875 42.33 62.9675 41.44 63.5275 40.68C64.1075 39.9 64.9075 39.3 65.9275 38.88C66.9475 38.46 68.1175 38.25 69.4375 38.25C70.0975 38.25 70.7675 38.3 71.4475 38.4C72.1275 38.5 72.7175 38.66 73.2175 38.88V38.04C73.2175 37.04 72.9175 36.27 72.3175 35.73C71.7375 35.19 70.8675 34.92 69.7075 34.92C68.8475 34.92 68.0275 35.07 67.2475 35.37C66.4675 35.67 65.6475 36.11 64.7875 36.69L63.4975 34.05C64.5375 33.37 65.5975 32.86 66.6775 32.52C67.7775 32.18 68.9275 32.01 70.1275 32.01C72.3675 32.01 74.1075 32.57 75.3475 33.69C76.6075 34.81 77.2375 36.41 77.2375 38.49V43.5C77.2375 43.92 77.3075 44.22 77.4475 44.4C77.6075 44.58 77.8575 44.69 78.1975 44.73V48C77.8375 48.06 77.5075 48.11 77.2075 48.15C76.9275 48.19 76.6875 48.21 76.4875 48.21C75.6875 48.21 75.0775 48.03 74.6575 47.67C74.2575 47.31 74.0075 46.87 73.9075 46.35L73.8175 45.54C73.1375 46.42 72.2875 47.1 71.2675 47.58C70.2475 48.06 69.2075 48.3 68.1475 48.3C67.1075 48.3 66.1675 48.09 65.3275 47.67C64.5075 47.23 63.8575 46.64 63.3775 45.9C62.9175 45.14 62.6875 44.29 62.6875 43.35ZM72.4675 44.16C72.6875 43.92 72.8675 43.68 73.0075 43.44C73.1475 43.2 73.2175 42.98 73.2175 42.78V41.19C72.7375 40.99 72.2175 40.84 71.6575 40.74C71.0975 40.62 70.5675 40.56 70.0675 40.56C69.0275 40.56 68.1675 40.79 67.4875 41.25C66.8275 41.69 66.4975 42.28 66.4975 43.02C66.4975 43.42 66.6075 43.8 66.8275 44.16C67.0475 44.52 67.3675 44.81 67.7875 45.03C68.2075 45.25 68.7075 45.36 69.2875 45.36C69.8875 45.36 70.4775 45.25 71.0575 45.03C71.6375 44.79 72.1075 44.5 72.4675 44.16ZM80.9641 26.1H84.9841V42.96C84.9841 43.68 85.1041 44.17 85.3441 44.43C85.5841 44.67 85.9141 44.79 86.3341 44.79C86.6541 44.79 86.9841 44.75 87.3241 44.67C87.6641 44.59 87.9641 44.49 88.2241 44.37L88.7641 47.43C88.2241 47.69 87.5941 47.89 86.8741 48.03C86.1541 48.17 85.5041 48.24 84.9241 48.24C83.6641 48.24 82.6841 47.91 81.9841 47.25C81.3041 46.57 80.9641 45.61 80.9641 44.37V26.1ZM97.8055 48.3C96.5455 48.3 95.4055 48.09 94.3855 47.67C93.3655 47.23 92.4955 46.64 91.7755 45.9C91.0555 45.14 90.4955 44.28 90.0955 43.32C89.7155 42.34 89.5255 41.31 89.5255 40.23C89.5255 38.73 89.8555 37.36 90.5155 36.12C91.1955 34.88 92.1555 33.89 93.3955 33.15C94.6555 32.39 96.1355 32.01 97.8355 32.01C99.5555 32.01 101.026 32.39 102.246 33.15C103.466 33.89 104.396 34.88 105.036 36.12C105.696 37.34 106.026 38.66 106.026 40.08C106.026 40.32 106.016 40.57 105.996 40.83C105.976 41.07 105.956 41.27 105.936 41.43H93.7855C93.8655 42.23 94.0955 42.93 94.4755 43.53C94.8755 44.13 95.3755 44.59 95.9755 44.91C96.5955 45.21 97.2555 45.36 97.9555 45.36C98.7555 45.36 99.5055 45.17 100.206 44.79C100.926 44.39 101.416 43.87 101.676 43.23L105.126 44.19C104.746 44.99 104.196 45.7 103.476 46.32C102.776 46.94 101.946 47.43 100.986 47.79C100.026 48.13 98.9655 48.3 97.8055 48.3ZM93.6955 38.88H101.916C101.836 38.08 101.606 37.39 101.226 36.81C100.866 36.21 100.386 35.75 99.7855 35.43C99.1855 35.09 98.5155 34.92 97.7755 34.92C97.0555 34.92 96.3955 35.09 95.7955 35.43C95.2155 35.75 94.7355 36.21 94.3555 36.81C93.9955 37.39 93.7755 38.08 93.6955 38.88ZM114.782 37.2C114.782 35.9 115.012 34.63 115.472 33.39C115.952 32.13 116.642 30.99 117.542 29.97C118.442 28.93 119.542 28.11 120.842 27.51C122.142 26.89 123.622 26.58 125.282 26.58C127.242 26.58 128.932 27.01 130.352 27.87C131.792 28.73 132.862 29.85 133.562 31.23L130.382 33.42C130.022 32.62 129.552 31.99 128.972 31.53C128.392 31.05 127.772 30.72 127.112 30.54C126.452 30.34 125.802 30.24 125.162 30.24C124.122 30.24 123.212 30.45 122.432 30.87C121.672 31.29 121.032 31.84 120.512 32.52C119.992 33.2 119.602 33.96 119.342 34.8C119.102 35.64 118.982 36.48 118.982 37.32C118.982 38.26 119.132 39.17 119.432 40.05C119.732 40.91 120.152 41.68 120.692 42.36C121.252 43.02 121.912 43.55 122.672 43.95C123.452 44.33 124.302 44.52 125.222 44.52C125.882 44.52 126.552 44.41 127.232 44.19C127.912 43.97 128.542 43.62 129.122 43.14C129.702 42.66 130.152 42.04 130.472 41.28L133.862 43.23C133.442 44.29 132.752 45.19 131.792 45.93C130.852 46.67 129.792 47.23 128.612 47.61C127.432 47.99 126.262 48.18 125.102 48.18C123.582 48.18 122.192 47.87 120.932 47.25C119.672 46.61 118.582 45.77 117.662 44.73C116.762 43.67 116.052 42.49 115.532 41.19C115.032 39.87 114.782 38.54 114.782 37.2ZM143.449 48.3C142.169 48.3 141.019 48.09 139.999 47.67C138.979 47.23 138.109 46.63 137.389 45.87C136.689 45.11 136.149 44.24 135.769 43.26C135.389 42.28 135.199 41.25 135.199 40.17C135.199 39.07 135.389 38.03 135.769 37.05C136.149 36.07 136.689 35.2 137.389 34.44C138.109 33.68 138.979 33.09 139.999 32.67C141.019 32.23 142.169 32.01 143.449 32.01C144.729 32.01 145.869 32.23 146.869 32.67C147.889 33.09 148.759 33.68 149.479 34.44C150.199 35.2 150.739 36.07 151.099 37.05C151.479 38.03 151.669 39.07 151.669 40.17C151.669 41.25 151.479 42.28 151.099 43.26C150.739 44.24 150.199 45.11 149.479 45.87C148.779 46.63 147.919 47.23 146.899 47.67C145.879 48.09 144.729 48.3 143.449 48.3ZM139.339 40.17C139.339 41.09 139.519 41.91 139.879 42.63C140.239 43.33 140.729 43.88 141.349 44.28C141.969 44.68 142.669 44.88 143.449 44.88C144.209 44.88 144.899 44.68 145.519 44.28C146.139 43.86 146.629 43.3 146.989 42.6C147.369 41.88 147.559 41.06 147.559 40.14C147.559 39.24 147.369 38.43 146.989 37.71C146.629 36.99 146.139 36.43 145.519 36.03C144.899 35.63 144.209 35.43 143.449 35.43C142.669 35.43 141.969 35.64 141.349 36.06C140.729 36.46 140.239 37.02 139.879 37.74C139.519 38.44 139.339 39.25 139.339 40.17ZM168.993 48H164.973V39.18C164.973 37.92 164.753 37 164.313 36.42C163.873 35.84 163.263 35.55 162.483 35.55C161.943 35.55 161.393 35.69 160.833 35.97C160.293 36.25 159.803 36.64 159.363 37.14C158.923 37.62 158.603 38.18 158.403 38.82V48H154.383V32.28H158.013V35.19C158.413 34.51 158.923 33.94 159.543 33.48C160.163 33 160.873 32.64 161.673 32.4C162.493 32.14 163.353 32.01 164.253 32.01C165.233 32.01 166.033 32.19 166.653 32.55C167.293 32.89 167.773 33.36 168.093 33.96C168.433 34.54 168.663 35.2 168.783 35.94C168.923 36.68 168.993 37.43 168.993 38.19V48ZM179.748 48.3C178.468 48.3 177.318 48.09 176.298 47.67C175.278 47.23 174.408 46.63 173.688 45.87C172.988 45.11 172.448 44.24 172.068 43.26C171.688 42.28 171.498 41.25 171.498 40.17C171.498 39.07 171.688 38.03 172.068 37.05C172.448 36.07 172.988 35.2 173.688 34.44C174.408 33.68 175.278 33.09 176.298 32.67C177.318 32.23 178.468 32.01 179.748 32.01C181.028 32.01 182.168 32.23 183.168 32.67C184.188 33.09 185.058 33.68 185.778 34.44C186.498 35.2 187.038 36.07 187.398 37.05C187.778 38.03 187.968 39.07 187.968 40.17C187.968 41.25 187.778 42.28 187.398 43.26C187.038 44.24 186.498 45.11 185.778 45.87C185.078 46.63 184.218 47.23 183.198 47.67C182.178 48.09 181.028 48.3 179.748 48.3ZM175.638 40.17C175.638 41.09 175.818 41.91 176.178 42.63C176.538 43.33 177.028 43.88 177.648 44.28C178.268 44.68 178.968 44.88 179.748 44.88C180.508 44.88 181.198 44.68 181.818 44.28C182.438 43.86 182.928 43.3 183.288 42.6C183.668 41.88 183.858 41.06 183.858 40.14C183.858 39.24 183.668 38.43 183.288 37.71C182.928 36.99 182.438 36.43 181.818 36.03C181.198 35.63 180.508 35.43 179.748 35.43C178.968 35.43 178.268 35.64 177.648 36.06C177.028 36.46 176.538 37.02 176.178 37.74C175.818 38.44 175.638 39.25 175.638 40.17ZM196.472 48.3C195.132 48.3 193.852 48.08 192.632 47.64C191.412 47.2 190.362 46.55 189.482 45.69L190.922 43.08C191.862 43.84 192.782 44.4 193.682 44.76C194.602 45.12 195.482 45.3 196.322 45.3C197.102 45.3 197.722 45.16 198.182 44.88C198.662 44.6 198.902 44.18 198.902 43.62C198.902 43.24 198.772 42.95 198.512 42.75C198.252 42.53 197.872 42.34 197.372 42.18C196.892 42.02 196.302 41.84 195.602 41.64C194.442 41.26 193.472 40.89 192.692 40.53C191.912 40.17 191.322 39.72 190.922 39.18C190.542 38.62 190.352 37.91 190.352 37.05C190.352 36.01 190.612 35.12 191.132 34.38C191.672 33.62 192.412 33.03 193.352 32.61C194.312 32.19 195.432 31.98 196.712 31.98C197.832 31.98 198.892 32.16 199.892 32.52C200.892 32.86 201.802 33.42 202.622 34.2L201.002 36.75C200.202 36.13 199.442 35.68 198.722 35.4C198.002 35.1 197.272 34.95 196.532 34.95C196.112 34.95 195.712 35 195.332 35.1C194.972 35.2 194.672 35.37 194.432 35.61C194.212 35.83 194.102 36.15 194.102 36.57C194.102 36.95 194.202 37.25 194.402 37.47C194.622 37.67 194.942 37.85 195.362 38.01C195.802 38.17 196.332 38.35 196.952 38.55C198.212 38.91 199.272 39.28 200.132 39.66C201.012 40.04 201.672 40.51 202.112 41.07C202.552 41.61 202.772 42.36 202.772 43.32C202.772 44.88 202.202 46.1 201.062 46.98C199.922 47.86 198.392 48.3 196.472 48.3ZM212.826 48.3C211.546 48.3 210.396 48.09 209.376 47.67C208.356 47.23 207.486 46.63 206.766 45.87C206.046 45.09 205.486 44.21 205.086 43.23C204.706 42.25 204.516 41.22 204.516 40.14C204.516 38.66 204.846 37.31 205.506 36.09C206.186 34.85 207.146 33.86 208.386 33.12C209.626 32.38 211.096 32.01 212.796 32.01C214.496 32.01 215.956 32.38 217.176 33.12C218.396 33.86 219.306 34.83 219.906 36.03L215.976 37.23C215.636 36.65 215.186 36.21 214.626 35.91C214.066 35.59 213.446 35.43 212.766 35.43C212.006 35.43 211.306 35.63 210.666 36.03C210.046 36.41 209.556 36.96 209.196 37.68C208.836 38.38 208.656 39.2 208.656 40.14C208.656 41.06 208.836 41.88 209.196 42.6C209.576 43.3 210.076 43.86 210.696 44.28C211.316 44.68 212.006 44.88 212.766 44.88C213.246 44.88 213.696 44.8 214.116 44.64C214.556 44.48 214.946 44.26 215.286 43.98C215.626 43.7 215.876 43.38 216.036 43.02L219.966 44.22C219.606 45 219.076 45.7 218.376 46.32C217.696 46.94 216.886 47.43 215.946 47.79C215.026 48.13 213.986 48.3 212.826 48.3ZM229.553 48.3C228.273 48.3 227.123 48.09 226.103 47.67C225.083 47.23 224.213 46.63 223.493 45.87C222.793 45.11 222.253 44.24 221.873 43.26C221.493 42.28 221.303 41.25 221.303 40.17C221.303 39.07 221.493 38.03 221.873 37.05C222.253 36.07 222.793 35.2 223.493 34.44C224.213 33.68 225.083 33.09 226.103 32.67C227.123 32.23 228.273 32.01 229.553 32.01C230.833 32.01 231.973 32.23 232.973 32.67C233.993 33.09 234.863 33.68 235.583 34.44C236.303 35.2 236.843 36.07 237.203 37.05C237.583 38.03 237.773 39.07 237.773 40.17C237.773 41.25 237.583 42.28 237.203 43.26C236.843 44.24 236.303 45.11 235.583 45.87C234.883 46.63 234.023 47.23 233.003 47.67C231.983 48.09 230.833 48.3 229.553 48.3ZM225.443 40.17C225.443 41.09 225.623 41.91 225.983 42.63C226.343 43.33 226.833 43.88 227.453 44.28C228.073 44.68 228.773 44.88 229.553 44.88C230.313 44.88 231.003 44.68 231.623 44.28C232.243 43.86 232.733 43.3 233.093 42.6C233.473 41.88 233.663 41.06 233.663 40.14C233.663 39.24 233.473 38.43 233.093 37.71C232.733 36.99 232.243 36.43 231.623 36.03C231.003 35.63 230.313 35.43 229.553 35.43C228.773 35.43 228.073 35.64 227.453 36.06C226.833 36.46 226.343 37.02 225.983 37.74C225.623 38.44 225.443 39.25 225.443 40.17Z" fill="white"/>
</svg>
